<svg width="780" height="197" viewBox="0 0 780 197" fill="none" xmlns="http://www.w3.org/2000/svg">
<path d="M758.44 44.5875V92.8288C758.44 96.0977 759.177 98.4702 760.652 99.9464C762.232 101.317 764.865 102.003 768.552 102.003H777.612C778.717 102.003 779.612 102.898 779.612 104.003V115.029C779.612 116.133 778.717 117.029 777.612 117.029H765.392C757.281 117.029 751.067 115.131 746.748 111.335C742.429 107.538 740.27 101.37 740.27 92.8288V44.5875H732C730.895 44.5875 730 43.6921 730 42.5875V31.8779C730 30.7733 730.895 29.8779 732 29.8779H740.27V2.92187C740.27 1.81731 741.165 0.921875 742.27 0.921875H756.44C757.545 0.921875 758.44 1.81731 758.44 2.92187V29.8779H777.612C778.717 29.8779 779.612 30.7733 779.612 31.8779V42.5875C779.612 43.6921 778.717 44.5875 777.612 44.5875H758.44Z" fill="#D53F8C"/>
<path d="M682.46 118.466C674.244 118.466 666.818 116.621 660.182 112.931C653.546 109.135 648.332 103.862 644.54 97.1137C640.748 90.2598 638.852 82.3514 638.852 73.3885C638.852 64.5311 640.801 56.6754 644.698 49.8215C648.596 42.9675 653.915 37.6952 660.656 34.0046C667.398 30.314 674.929 28.4688 683.25 28.4688C691.572 28.4688 699.103 30.314 705.844 34.0046C712.586 37.6952 717.905 42.9675 721.802 49.8215C725.7 56.6754 727.648 64.5311 727.648 73.3885C727.648 82.2459 725.647 90.1016 721.644 96.9556C717.642 103.81 712.164 109.135 705.212 112.931C698.366 116.621 690.782 118.466 682.46 118.466ZM682.46 102.808C687.095 102.808 691.414 101.701 695.416 99.4863C699.524 97.2719 702.842 93.9504 705.37 89.5217C707.898 85.093 709.162 79.7152 709.162 73.3885C709.162 67.0618 707.951 61.7368 705.528 57.4135C703.106 52.9848 699.893 49.6633 695.89 47.4489C691.888 45.2346 687.569 44.1274 682.934 44.1274C678.3 44.1274 673.981 45.2346 669.978 47.4489C666.081 49.6633 662.974 52.9848 660.656 57.4135C658.339 61.7368 657.18 67.0618 657.18 73.3885C657.18 82.7732 659.55 90.0489 664.29 95.2157C669.136 100.277 675.192 102.808 682.46 102.808Z" fill="#D53F8C"/>
<path d="M563.528 42.8636C566.583 38.6458 570.744 35.2188 576.01 32.5826C581.382 29.8411 587.334 28.4703 593.864 28.4703C601.554 28.4703 608.506 30.3156 614.72 34.0062C620.935 37.6967 625.833 42.969 629.414 49.823C632.996 56.5715 634.786 64.3217 634.786 73.0737C634.786 81.8257 632.996 89.6813 629.414 96.6407C625.833 103.495 620.882 108.872 614.562 112.774C608.348 116.57 601.448 118.468 593.864 118.468C587.123 118.468 581.119 117.15 575.852 114.514C570.691 111.878 566.583 108.503 563.528 104.391V115.044C563.528 116.149 562.633 117.044 561.528 117.044H547.516C546.412 117.044 545.516 116.149 545.516 115.044V2C545.516 0.89543 546.412 0 547.516 0H561.528C562.633 0 563.528 0.895431 563.528 2V42.8636ZM616.458 73.0737C616.458 67.0633 615.194 61.8965 612.666 57.5732C610.244 53.1445 606.978 49.823 602.87 47.6086C598.868 45.2888 594.549 44.1289 589.914 44.1289C585.385 44.1289 581.066 45.2888 576.958 47.6086C572.956 49.9284 569.69 53.3027 567.162 57.7314C564.74 62.1601 563.528 67.3796 563.528 73.39C563.528 79.4004 564.74 84.6727 567.162 89.2068C569.69 93.6356 572.956 97.0098 576.958 99.3296C581.066 101.649 585.385 102.809 589.914 102.809C594.549 102.809 598.868 101.649 602.87 99.3296C606.978 96.9044 610.244 93.4247 612.666 88.8905C615.194 84.3564 616.458 79.0841 616.458 73.0737Z" fill="#D53F8C"/>
<path d="M535.691 71.3323C535.691 73.92 535.559 76.3095 535.295 78.5007C535.177 79.4764 534.336 80.1897 533.353 80.1897H468.541C469.067 87.1491 471.648 92.7378 476.283 96.9556C480.917 101.173 486.605 103.282 493.347 103.282C502.588 103.282 509.242 99.5908 513.311 92.2077C513.679 91.5407 514.369 91.1033 515.131 91.1033H530.558C531.92 91.1033 532.882 92.4353 532.373 93.6979C529.606 100.551 525.13 106.276 518.943 110.874C512.096 115.936 503.564 118.466 493.347 118.466C485.025 118.466 477.547 116.621 470.911 112.931C464.38 109.135 459.219 103.862 455.427 97.1137C451.74 90.2598 449.897 82.3514 449.897 73.3885C449.897 64.4256 451.687 56.57 455.269 49.8215C458.955 42.9675 464.064 37.6952 470.595 34.0046C477.231 30.314 484.815 28.4688 493.347 28.4688C501.563 28.4688 508.883 30.2613 515.309 33.8465C521.734 37.4316 526.737 42.493 530.319 49.0306C533.9 55.4628 535.691 62.8967 535.691 71.3323ZM516.889 65.6383C516.783 58.9952 514.413 53.6702 509.779 49.6633C505.144 45.6564 499.403 43.6529 492.557 43.6529C486.342 43.6529 481.023 45.6564 476.599 49.6633C472.175 53.5648 469.541 58.8898 468.699 65.6383H516.889Z" fill="#D53F8C"/>
<path d="M411 118.466C404.154 118.466 397.992 117.254 392.514 114.829C387.142 112.298 382.876 108.924 379.716 104.706C376.976 100.957 375.345 96.8504 374.822 92.3874C374.69 91.2592 375.606 90.3125 376.742 90.3125H391.468C392.507 90.3125 393.354 91.1132 393.585 92.1258C394.245 95.0333 395.89 97.5395 398.518 99.6444C401.784 102.07 405.839 103.282 410.684 103.282C415.74 103.282 419.638 102.333 422.376 100.435C425.22 98.4318 426.642 95.9011 426.642 92.8432C426.642 89.5744 425.062 87.1491 421.902 85.5675C418.848 83.9858 413.95 82.2459 407.208 80.3479C400.678 78.5553 395.358 76.8155 391.25 75.1284C387.142 73.4412 383.561 70.8578 380.506 67.3781C377.557 63.8984 376.082 59.3115 376.082 53.6175C376.082 48.9779 377.452 44.7601 380.19 40.964C382.929 37.0626 386.826 34.0046 391.882 31.7903C397.044 29.5759 402.942 28.4688 409.578 28.4688C419.48 28.4688 427.432 30.9994 433.436 36.0608C439.044 40.6095 442.255 46.7126 443.071 54.3701C443.192 55.5065 442.275 56.4645 441.133 56.4645H427.065C426.023 56.4645 425.172 55.66 424.969 54.638C424.362 51.5799 422.866 49.0781 420.48 47.1326C417.636 44.8128 413.792 43.6529 408.946 43.6529C404.206 43.6529 400.572 44.5492 398.044 46.3417C395.516 48.1343 394.252 50.5069 394.252 53.4593C394.252 55.7791 395.095 57.7299 396.78 59.3115C398.466 60.8932 400.52 62.1586 402.942 63.1076C405.365 63.9511 408.946 65.0583 413.686 66.4291C420.006 68.1162 425.168 69.8561 429.17 71.6487C433.278 73.3358 436.807 75.8665 439.756 79.2407C442.706 82.615 444.233 87.0964 444.338 92.685C444.338 97.641 442.969 102.07 440.23 105.971C437.492 109.873 433.594 112.931 428.538 115.145C423.588 117.359 417.742 118.466 411 118.466Z" fill="#D53F8C"/>
<path d="M361.652 0C362.757 0 363.652 0.895431 363.652 2V115.044C363.652 116.149 362.757 117.044 361.652 117.044H347.64C346.536 117.044 345.64 116.149 345.64 115.044V2C345.64 0.89543 346.536 0 347.64 0H361.652Z" fill="#D53F8C"/>
<path d="M329.775 29.8926V117.043H311.763V106.762C308.919 110.347 305.179 113.194 300.545 115.303C296.015 117.307 291.17 118.309 286.009 118.309C279.162 118.309 273 116.885 267.523 114.038C262.151 111.191 257.885 106.973 254.725 101.385C251.67 95.796 250.143 89.0475 250.143 81.1391V29.8926H267.997V78.4502C267.997 86.2532 269.945 92.2635 273.843 96.4814C277.74 100.594 283.059 102.65 289.801 102.65C296.542 102.65 301.861 100.594 305.759 96.4814C309.761 92.2635 311.763 86.2532 311.763 78.4502V29.8926H329.775Z" fill="#D53F8C"/>
<path d="M169.763 42.7039C172.817 38.697 176.978 35.3227 182.245 32.5811C187.511 29.8395 193.463 28.4688 200.099 28.4688C207.683 28.4688 214.582 30.3668 220.797 34.1628C227.117 37.8534 232.067 43.0729 235.649 49.8215C239.23 56.57 241.021 64.3202 241.021 73.0722C241.021 81.8241 239.23 89.6798 235.649 96.6392C232.067 103.493 227.117 108.871 220.797 112.772C214.582 116.568 207.683 118.466 200.099 118.466C193.463 118.466 187.564 117.148 182.403 114.512C177.241 111.771 173.028 108.396 169.763 104.389V156.483C169.763 157.588 168.867 158.483 167.763 158.483H153.751C152.646 158.483 151.751 157.588 151.751 156.483V31.8923C151.751 30.7877 152.646 29.8923 153.751 29.8923H167.763C168.867 29.8923 169.763 30.7877 169.763 31.8923V42.7039ZM222.693 73.0722C222.693 67.0618 221.429 61.895 218.901 57.5717C216.478 53.143 213.213 49.8215 209.105 47.6071C205.102 45.2873 200.783 44.1274 196.149 44.1274C191.619 44.1274 187.301 45.2873 183.193 47.6071C179.19 49.9269 175.925 53.3011 173.397 57.7299C170.974 62.1586 169.763 67.3781 169.763 73.3885C169.763 79.3989 170.974 84.6712 173.397 89.2053C175.925 93.634 179.19 97.0083 183.193 99.3281C187.301 101.648 191.619 102.808 196.149 102.808C200.783 102.808 205.102 101.648 209.105 99.3281C213.213 96.9028 216.478 93.4232 218.901 88.889C221.429 84.3548 222.693 79.0826 222.693 73.0722Z" fill="#D53F8C"/>
<path d="M34.3994 30.0059C38.0167 29.1282 41.7178 28.7059 45.4171 28.7402C45.6904 28.7428 45.7551 29.1198 45.5017 29.2221C41.0712 31.0106 36.9197 33.4561 33.1914 36.4874C30.778 38.4496 28.5678 40.6356 26.5886 43.0116C26.5707 43.0331 26.5493 43.0515 26.5253 43.066C22.4802 45.5065 18.9316 48.7366 16.1064 52.5943C11.6045 58.7417 9.17269 66.1635 9.16211 73.7858C9.17447 81.4132 11.6118 88.8389 16.1211 94.9871C18.9401 98.8306 22.4777 102.05 26.5087 104.484C26.5327 104.499 26.5541 104.517 26.572 104.539C28.5556 106.923 30.7709 109.116 33.1914 111.084C36.92 114.116 41.0718 116.561 45.5027 118.35C45.7561 118.452 45.6914 118.829 45.4181 118.831C41.7184 118.866 38.017 118.445 34.3994 117.567C27.8953 115.989 21.8248 112.977 16.6299 108.754C11.435 104.53 7.24695 99.1992 4.37012 93.1502C1.49327 87.101 0 80.4855 0 73.7858C3.03235e-05 67.0862 1.4933 60.4705 4.37012 54.4215C7.24696 48.3726 11.435 43.0416 16.6299 38.818C21.8247 34.5943 27.8954 31.584 34.3994 30.0059Z" fill="#EA9FC5"/>
<path d="M81.9173 28.7383C73.0171 28.7383 64.3168 31.3803 56.9166 36.3302C49.5164 41.2801 43.7487 48.3157 40.3427 56.5471C36.9368 64.7785 36.0456 73.8361 37.782 82.5746C39.5183 91.313 43.8041 99.3398 50.0975 105.64C56.3909 111.94 64.4091 116.23 73.1382 117.968C81.8674 119.707 90.9154 118.815 99.138 115.405C107.361 111.995 114.389 106.222 119.333 98.8134C124.278 91.4053 126.917 82.6958 126.917 73.7862C126.903 61.843 122.158 50.3929 113.722 41.9478C105.286 33.5027 93.8478 28.7521 81.9173 28.7383ZM117.734 73.7862C117.735 80.8788 115.634 87.8125 111.699 93.7103C107.763 99.608 102.169 104.205 95.6229 106.92C89.0772 109.634 81.8744 110.345 74.9254 108.961C67.9763 107.578 61.5932 104.162 56.5832 99.1472C51.5733 94.1319 48.1615 87.742 46.7795 80.7855C45.3975 73.8291 46.1073 66.6186 48.8191 60.066C51.5309 53.5134 56.1229 47.913 62.0144 43.9731C67.9059 40.0332 74.8321 37.9308 81.9173 37.9317C91.4129 37.9431 100.516 41.7242 107.231 48.4458C113.945 55.1673 117.722 64.2805 117.734 73.7862Z" fill="#D53F8C"/>
<path d="M52.8525 30.0063C57.3219 28.9219 61.9189 28.5322 66.4829 28.8404C66.7545 28.8588 66.7986 29.237 66.5414 29.3261C62.7698 30.6331 59.1597 32.4221 55.8057 34.6656C52.8157 36.6655 50.0819 38.9927 47.6464 41.5909C47.6258 41.6129 47.6014 41.6309 47.5744 41.6443C42.4472 44.1826 37.9757 47.9248 34.5625 52.586C30.0596 58.7354 27.6318 66.1616 27.6318 73.7862C27.6318 81.4109 30.0596 88.8371 34.5625 94.9865C37.975 99.6467 42.4455 103.388 47.5715 105.926C47.5985 105.94 47.6228 105.958 47.6434 105.98C47.984 106.343 48.3297 106.703 48.6826 107.056C53.7311 112.11 59.843 115.925 66.5373 118.245C66.7946 118.334 66.7505 118.713 66.4789 118.731C61.9162 119.039 57.3206 118.65 52.8525 117.566C46.3485 115.988 40.2779 112.978 35.083 108.754C29.888 104.53 25.6991 99.1997 22.8223 93.1506C19.9454 87.1015 18.4531 80.4859 18.4531 73.7862C18.4531 67.0866 19.9454 60.471 22.8223 54.4219C25.6991 48.3728 29.888 43.0422 35.083 38.8184C40.2779 34.5948 46.3485 31.5845 52.8525 30.0063Z" fill="#DF6FA9"/>
<path d="M75.097 40.6282C75.2527 40.5961 75.4141 40.6413 75.5308 40.7491C79.8688 44.7572 83.38 49.5857 85.8564 54.9626C88.5746 60.8645 89.982 67.2863 89.9824 73.7853C89.9796 80.2818 88.5707 86.701 85.8525 92.6002C83.3378 98.0579 79.7567 102.95 75.3274 106.993C75.3242 106.996 75.3197 106.997 75.3154 106.996C71.9136 106.319 68.6558 105.125 65.6475 103.473C65.4855 103.384 65.4752 103.156 65.6262 103.05C69.9458 100.004 73.5479 96.033 76.1611 91.4115C79.2037 86.0304 80.8037 79.952 80.8037 73.7687C80.8037 67.5853 79.2038 61.5071 76.1611 56.1259C73.5546 51.516 69.965 47.552 65.6601 44.5094C65.5092 44.4028 65.5198 44.1748 65.6819 44.086C68.6371 42.4679 71.8115 41.3049 75.097 40.6282Z" fill="#EA9FC5"/>
<path d="M92.7141 107.982C92.7139 107.982 92.7138 107.983 92.7136 107.983C92.2698 108.123 91.8236 108.253 91.376 108.375C91.8238 108.253 92.2693 108.121 92.7128 107.98C92.7141 107.98 92.715 107.981 92.7141 107.982Z" fill="#DF6FA9"/>
<path d="M81.915 39.9336C87.0006 39.9397 91.9665 41.0929 96.4697 43.2465C96.5265 43.2737 96.5776 43.3115 96.6202 43.3579C99.7736 46.7905 102.383 50.7009 104.344 54.9554C107.065 60.8592 108.473 67.2842 108.474 73.786C108.474 80.2879 107.066 86.7126 104.345 92.6166C102.375 96.89 99.751 100.816 96.5784 104.259C96.5357 104.305 96.4845 104.343 96.4275 104.37C95.911 104.616 95.3876 104.85 94.8574 105.07C89.3168 107.368 83.2775 108.143 77.3592 107.338C77.107 107.304 77.0679 106.958 77.3027 106.86C83.0299 104.461 88.0646 100.603 91.8809 95.6305C96.6891 89.3657 99.2959 81.6864 99.2959 73.786C99.2959 65.8854 96.6893 58.2054 91.8809 51.9405C88.0684 46.9733 83.0401 43.1177 77.3201 40.7186C77.0854 40.6202 77.1246 40.2745 77.3767 40.2403C78.8752 40.037 80.3912 39.9335 81.915 39.9336Z" fill="#DF6FA9"/>
<path d="M763.884 181.362C761.537 181.362 759.397 180.97 757.462 180.187C755.527 179.363 754.004 178.23 752.892 176.788C751.781 175.304 751.225 173.614 751.225 171.719C751.225 171.599 751.231 171.462 751.241 171.309C751.281 170.762 751.756 170.359 752.305 170.359H756.978C757.633 170.359 758.127 170.932 758.21 171.581C758.344 172.613 758.815 173.504 759.623 174.253C760.734 175.283 762.299 175.799 764.316 175.799C766.292 175.799 767.918 175.448 769.194 174.748C770.47 174.047 771.108 173.017 771.108 171.657C771.108 170.503 770.573 169.576 769.503 168.875C768.474 168.175 766.806 167.392 764.501 166.526C762.319 165.661 760.549 164.857 759.191 164.116C757.832 163.374 756.659 162.364 755.671 161.087C754.683 159.768 754.189 158.14 754.189 156.203C754.189 154.225 754.745 152.495 755.856 151.011C757.009 149.486 758.594 148.312 760.611 147.488C762.669 146.622 765.016 146.189 767.65 146.189C770.038 146.189 772.158 146.602 774.01 147.426C775.904 148.209 777.365 149.342 778.395 150.826C779.465 152.268 780 153.937 780 155.833C780 155.954 779.999 156.068 779.997 156.177C779.988 156.725 779.531 157.131 778.982 157.131H774.491C773.837 157.131 773.344 156.56 773.265 155.912C773.136 154.854 772.664 153.962 771.849 153.236C770.779 152.247 769.235 151.753 767.218 151.753C765.448 151.753 764.007 152.124 762.896 152.865C761.825 153.607 761.29 154.617 761.29 155.894C761.29 157.172 761.846 158.202 762.957 158.985C764.069 159.727 765.777 160.551 768.083 161.458C770.182 162.282 771.89 163.065 773.208 163.807C774.525 164.548 775.657 165.537 776.604 166.774C777.551 168.01 778.024 169.555 778.024 171.41C778.024 173.429 777.407 175.201 776.172 176.726C774.978 178.209 773.311 179.363 771.17 180.187C769.029 180.97 766.601 181.362 763.884 181.362Z" fill="#D53F8C"/>
<path d="M751.059 146.746C751.745 146.746 752.264 147.365 752.145 148.04L746.543 179.894C746.451 180.421 745.993 180.806 745.457 180.806H740.649C739.966 180.806 739.448 180.192 739.561 179.519L740.023 176.788C738.665 178.189 737.018 179.302 735.083 180.126C733.19 180.909 731.234 181.3 729.217 181.3C725.636 181.3 722.775 180.332 720.634 178.395C718.493 176.458 717.423 173.718 717.423 170.174C717.423 169.226 717.526 168.093 717.732 166.774L721.091 147.658C721.184 147.131 721.642 146.746 722.177 146.746H726.916C727.601 146.746 728.12 147.365 728.002 148.04L724.895 165.723C724.73 166.877 724.648 167.701 724.648 168.196C724.648 170.462 725.265 172.193 726.5 173.388C727.776 174.583 729.526 175.181 731.749 175.181C734.342 175.181 736.545 174.418 738.356 172.894C740.167 171.328 741.361 169.082 741.937 166.156L745.174 147.659C745.266 147.131 745.724 146.746 746.26 146.746H751.059Z" fill="#D53F8C"/>
<path d="M717.426 135.064C718.111 135.064 718.631 135.684 718.511 136.359L710.812 179.896C710.719 180.423 710.261 180.807 709.726 180.807H704.927C704.241 180.807 703.721 180.188 703.841 179.512L711.54 135.975C711.633 135.448 712.091 135.064 712.626 135.064H717.426Z" fill="#D53F8C"/>
<path d="M678.249 151.753C679.731 150.187 681.584 148.868 683.807 147.797C686.071 146.725 688.5 146.189 691.093 146.189C693.686 146.189 695.992 146.746 698.009 147.858C700.026 148.971 701.59 150.558 702.702 152.618C703.813 154.679 704.369 157.089 704.369 159.85C704.369 161.046 704.245 162.302 703.998 163.621C703.381 167.042 702.125 170.112 700.232 172.831C698.379 175.51 696.095 177.612 693.378 179.137C690.702 180.62 687.882 181.362 684.918 181.362C682.325 181.362 680.102 180.847 678.249 179.816C676.438 178.745 675.018 177.426 673.989 175.86L671.37 190.8C670.742 194.385 667.628 197.001 663.988 197.001C663.6 197.001 663.306 196.651 663.373 196.268L671.914 147.658C672.007 147.13 672.465 146.746 673 146.746H677.804C678.488 146.746 679.007 147.362 678.891 148.036L678.249 151.753ZM696.836 163.621C697 162.838 697.083 161.993 697.083 161.087C697.083 158.326 696.259 156.183 694.613 154.658C693.007 153.092 690.97 152.309 688.5 152.309C686.729 152.309 684.959 152.762 683.189 153.669C681.46 154.576 679.958 155.894 678.682 157.625C677.405 159.356 676.561 161.396 676.15 163.745C675.985 164.528 675.903 165.373 675.903 166.279C675.903 169.04 676.706 171.224 678.311 172.831C679.958 174.439 681.995 175.242 684.424 175.242C686.235 175.242 688.006 174.789 689.735 173.882C691.505 172.934 693.028 171.575 694.304 169.803C695.58 168.031 696.424 165.97 696.836 163.621Z" fill="#D53F8C"/>
<path d="M666.691 162.941C666.691 163.846 666.65 164.69 666.567 165.471C666.51 166.009 666.045 166.403 665.504 166.403H640.448C640.654 169.123 641.662 171.307 643.473 172.955C645.285 174.603 647.508 175.428 650.142 175.428C653.681 175.428 656.249 174.043 657.847 171.273C658.057 170.909 658.436 170.668 658.855 170.668H664.242C664.992 170.668 665.523 171.403 665.223 172.091C664.132 174.589 662.439 176.69 660.146 178.395C657.47 180.373 654.135 181.362 650.142 181.362C646.89 181.362 643.967 180.641 641.374 179.198C638.822 177.715 636.805 175.654 635.323 173.017C633.882 170.338 633.161 167.248 633.161 163.745C633.161 160.242 633.861 157.172 635.261 154.534C636.702 151.856 638.698 149.795 641.25 148.353C643.844 146.911 646.808 146.189 650.142 146.189C653.353 146.189 656.214 146.89 658.725 148.291C661.236 149.692 663.192 151.67 664.591 154.225C665.991 156.739 666.691 159.644 666.691 162.941ZM659.343 160.716C659.302 158.12 658.375 156.039 656.564 154.473C654.753 152.907 652.509 152.124 649.834 152.124C647.405 152.124 645.326 152.907 643.597 154.473C641.868 155.997 640.839 158.078 640.51 160.716H659.343Z" fill="#D53F8C"/>
<path d="M616.856 146.189C619.531 146.189 621.919 146.746 624.019 147.858C626.159 148.971 627.826 150.619 629.02 152.804C630.255 154.988 630.873 157.625 630.873 160.716V179.703C630.873 180.312 630.379 180.806 629.77 180.806H624.998C624.389 180.806 623.895 180.312 623.895 179.703V161.767C623.895 158.717 623.134 156.389 621.61 154.782C620.087 153.133 618.008 152.309 615.374 152.309C612.739 152.309 610.64 153.133 609.075 154.782C607.552 156.389 606.791 158.717 606.791 161.767V179.703C606.791 180.312 606.297 180.806 605.688 180.806H600.916C600.307 180.806 599.813 180.312 599.813 179.703V161.767C599.813 158.717 599.052 156.389 597.528 154.782C596.005 153.133 593.926 152.309 591.292 152.309C588.657 152.309 586.558 153.133 584.993 154.782C583.47 156.389 582.709 158.717 582.709 161.767V179.703C582.709 180.312 582.215 180.806 581.606 180.806H576.772C576.163 180.806 575.669 180.312 575.669 179.703V147.848C575.669 147.239 576.163 146.746 576.772 146.746H581.606C582.215 146.746 582.709 147.239 582.709 147.848V150.64C583.861 149.239 585.323 148.147 587.093 147.364C588.863 146.581 590.757 146.189 592.774 146.189C595.491 146.189 597.919 146.766 600.06 147.92C602.201 149.074 603.847 150.743 605 152.927C606.029 150.867 607.635 149.239 609.816 148.044C611.998 146.808 614.345 146.189 616.856 146.189Z" fill="#D53F8C"/>
<path d="M570.947 146.746C571.556 146.746 572.05 147.24 572.05 147.849V179.703C572.05 180.312 571.556 180.806 570.947 180.806H566.113C565.504 180.806 565.011 180.312 565.011 179.703V147.849C565.011 147.24 565.504 146.746 566.113 146.746H570.947Z" fill="#D53F8C"/>
<path d="M570.947 146.746C571.556 146.746 572.05 147.24 572.05 147.849V179.703C572.05 180.312 571.556 180.806 570.947 180.806H566.113C565.504 180.806 565.011 180.312 565.011 179.703V147.849C565.011 147.24 565.504 146.746 566.113 146.746H570.947Z" fill="#D53F8C"/>
<path d="M570.947 135.547C571.556 135.547 572.05 136.041 572.05 136.65V141.487C572.05 142.096 571.556 142.589 570.947 142.589H566.113C565.504 142.589 565.011 142.096 565.011 141.487V136.65C565.011 136.041 565.504 135.547 566.113 135.547H570.947Z" fill="#D53F8C"/>
<path d="M570.947 135.547C571.556 135.547 572.05 136.041 572.05 136.65V141.487C572.05 142.096 571.556 142.589 570.947 142.589H566.113C565.504 142.589 565.011 142.096 565.011 141.487V136.65C565.011 136.041 565.504 135.547 566.113 135.547H570.947Z" fill="#D53F8C"/>
<path d="M553.271 152.493V171.346C553.271 172.624 553.559 173.551 554.135 174.128C554.752 174.664 555.782 174.931 557.222 174.931H560.442C561.051 174.931 561.545 175.425 561.545 176.034V179.701C561.545 180.31 561.051 180.804 560.442 180.804H555.987C552.818 180.804 550.389 180.062 548.701 178.578C547.013 177.095 546.169 174.684 546.169 171.346V152.493H543.258C542.649 152.493 542.156 151.999 542.156 151.39V147.847C542.156 147.238 542.649 146.744 543.258 146.744H546.169V136.65C546.169 136.041 546.663 135.547 547.272 135.547H552.168C552.777 135.547 553.271 136.041 553.271 136.65V146.744H560.442C561.051 146.744 561.545 147.238 561.545 147.847V151.39C561.545 151.999 561.051 152.493 560.442 152.493H553.271Z" fill="#D53F8C"/>
</svg>
